<svg width="231" height="230" viewBox="0 0 231 230" fill="none" xmlns="http://www.w3.org/2000/svg">
<defs>
<linearGradient id="paint0_linear_37_1201" x1="52.855" y1="20.8259" x2="181.488" y2="200.988" gradientUnits="userSpaceOnUse">
<stop stop-color="#786FA6"/>
<stop offset="1" stop-color="#3DC1D3"/>
</linearGradient>
<linearGradient id="paint1_linear_37_1201" x1="57.174" y1="26.879" x2="178.801" y2="197.228" gradientUnits="userSpaceOnUse">
<stop stop-color="#786FA6"/>
<stop offset="1" stop-color="#3DC1D3"/>
</linearGradient>
</defs>
<path d="M122.493 228.888C110.744 226.925 102.315 219.018 94.8824 212.042C90.9019 208.307 87.1376 204.777 83.1151 202.243C74.0255 196.522 65.9204 194.349 58.0796 192.247C45.4058 188.855 32.2996 185.343 18.1969 167.602C3.99813 149.735 -1.32715 132.726 1.92086 115.604C5.10282 98.8115 16.4378 84.2945 25.9537 73.5299C32.1616 66.4995 36.5023 57.8001 41.0891 48.5904C45.0816 40.5815 49.2061 32.3023 54.8016 24.7917C69.1565 5.53778 83.1331 -1.37249 101.534 1.70141C108.631 2.88414 115.925 5.43572 123.646 8.13739C130.472 10.5209 137.527 12.9884 145.434 14.9276C146.196 15.1137 147.007 15.2818 147.835 15.4199C151.858 16.0923 156.096 16.1103 160.575 16.1343C165.36 16.1583 170.301 16.1824 175.326 17.0229C181.342 18.0255 186.517 20.0728 191.134 23.2728C205.411 33.1609 206.72 44.4539 207.986 55.3686C208.503 59.8174 209.037 64.4102 210.46 69.1832C212.279 75.2709 215.557 80.8844 219.027 86.8341C224.334 95.9237 229.822 105.326 230.368 117.147C231.419 139.901 216.482 152.539 205.159 160.067C201.526 162.487 197.948 164.39 194.49 166.233C187.298 170.064 181.09 173.372 177.013 180.042C175.794 182.035 175.146 185.451 174.522 188.753C173.771 192.716 172.991 196.816 171.076 200.502C164.147 213.855 148.994 227.921 130.761 229.266C127.951 229.458 125.171 229.332 122.493 228.888Z" stroke="url(#paint0_linear_37_1201)" stroke-miterlimit="10" stroke-dasharray="25 25"/>
<path d="M22.8979 163.868C44.1811 190.644 61.3877 181.465 86.3151 197.158C100.52 206.098 110.342 224.727 130.322 223.263C145.35 222.158 159.014 210.703 165.75 197.723C168.896 191.659 168.464 182.515 171.892 176.902C178.97 165.321 190.654 162.493 201.839 155.06C214.729 146.487 225.205 135.482 224.371 117.417C223.56 99.7961 209.601 87.3084 204.702 70.8942C199.575 53.7116 205.087 40.2393 187.712 28.1958C173.891 18.6199 158.366 24.2754 143.999 20.7512C107.274 11.7516 87.2097 -8.64897 59.6106 28.3759C48.0654 43.8655 42.8482 63.4676 30.4445 77.4983C8.3989 102.456 -5.33759 128.344 22.8979 163.868Z" fill="url(#paint1_linear_37_1201)"/>
</svg>
