<svg width="257" height="253" viewBox="0 0 257 253" fill="none" xmlns="http://www.w3.org/2000/svg">
<defs>
<linearGradient id="paint0_linear_37_1203" x1="-1.13232e-06" y1="10.5" x2="258" y2="241" gradientUnits="userSpaceOnUse">
<stop stop-color="#786FA6"/>
<stop offset="1" stop-color="#3DC1D3"/>
</linearGradient>
<linearGradient id="paint1_linear_37_1203" x1="337" y1="135" x2="121.5" y2="156.5" gradientUnits="userSpaceOnUse">
<stop stop-color="#786FA6"/>
<stop offset="1" stop-color="#3DC1D3"/>
</linearGradient>
</defs>
<mask id="mask0_37_1203" style="mask-type:alpha" maskUnits="userSpaceOnUse" x="0" y="0" width="257" height="253">
<rect width="257" height="253" fill="#D9D9D9"/>
</mask>
<g mask="url(#mask0_37_1203)">
<path d="M221.037 16.9216C209.911 32.3012 203.748 51.4084 197.907 70.1563C192.066 88.9043 186.185 108.071 175.469 123.825C164.757 139.579 148.129 151.605 130.606 150.278C96.2839 147.673 73.7667 104.808 41.7056 93.4503C31.3859 89.7925 19.3162 90.2616 10.7113 97.672C-1.32756 108.036 -2.73378 129.105 4.07253 144.395C10.8788 159.684 23.9052 170.139 37.1916 178.318C47.3966 184.6 58.0602 189.925 69.0367 194.226C82.8697 199.64 97.8621 203.862 108.226 215.564C121.362 230.4 118.669 242.012 111.457 252.81H257.713V0H237.555C231.37 4.7057 225.767 10.3845 221.037 16.9216Z" fill="url(#paint0_linear_37_1203)"/>
<path d="M222.002 141.648C212.087 156.893 196.87 167.277 177.875 172.716C169.861 175.012 161.503 176.549 154.295 181.07C147.088 185.591 141.132 194.079 142.036 203.126C143.147 214.234 153.797 221.166 163.813 222.932C184.88 226.645 208.6 222.902 223.192 203.67C234.552 188.695 238.775 167.686 251.413 154.088C263.65 140.924 282.209 136.513 292.829 121.657C298.423 113.828 301.182 103.847 302.549 93.8971C304.484 79.805 303.743 64.8495 298.07 52.1147C292.397 39.3849 281.2 29.3148 268.623 28.5114C235.649 26.4105 235.892 73.8168 234.724 98.9022C233.939 115.889 229.478 130.15 222.002 141.648Z" fill="url(#paint1_linear_37_1203)"/>
</g>
</svg>
