<svg width="268" height="259" viewBox="0 0 268 259" fill="none" xmlns="http://www.w3.org/2000/svg">
 <defs>
  <linearGradient id="paint0_linear_60_558" x1="-0.612287" y1="129.663" x2="266.803" y2="129.663" gradientUnits="userSpaceOnUse">
   <stop stop-color="#3DC1D3"/>
   <stop offset="1" stop-color="#596275"/>
  </linearGradient>
  <linearGradient id="paint1_linear_60_558" x1="123.048" y1="138.782" x2="248.206" y2="279.578" gradientUnits="userSpaceOnUse">
   <stop stop-color="#3DC1D3"/>
   <stop offset="1" stop-color="#786FA6"/>
  </linearGradient>
 </defs>
 <path d="M200.693 89.5684C198.209 96.2438 194.941 102.779 190.019 108.343C184.828 114.216 178.197 119.02 171.352 123.29C164.76 127.398 158.026 131.689 150.43 134.2C143.458 136.507 136.131 137.759 128.867 139.11C112.993 142.064 96.8664 146.432 83.5884 154.986C76.3796 159.629 70.3736 165.27 66.1955 172.297C62.0886 179.205 59.3824 186.738 56.5891 194.117C50.9788 208.952 43.6355 223.47 32.0508 235.421C25.6966 241.977 18.5195 247.78 10.4957 252.676C7.08521 254.758 4.37102 256.334 0.936768 258.388H267.606V0.938232C254.668 4.46937 244.603 11.3628 234.68 19.2903C223.293 28.3855 216.06 40.0973 211.51 52.9768C207.269 65.0193 205.156 77.5752 200.693 89.5684Z" fill="url(#paint0_linear_60_558)"/>
 <path d="M267.622 68.7192C265.113 70.6677 262.399 72.4473 259.289 73.9737C251.851 77.6174 242.569 77.6174 235.131 81.5988C213.592 93.1207 213.702 113.864 205.584 132.498C192.82 161.788 170.6 156.4 140.871 159.052C117.884 161.099 91.4382 171.298 91.2483 195.425C91.1296 211.168 110.983 221.592 95.6559 233.149C87.0465 239.642 71.7427 235.611 61.8672 238.531C48.2173 242.561 40.6762 250.003 34.6702 258.824L267.606 258.402L267.622 68.7192ZM216.527 118.528C217.564 116.354 218.197 114.054 219.234 111.874C220.183 109.883 221.228 107.928 222.13 105.916C223.926 101.899 225.817 98.0798 228.8 94.633C232.725 90.096 238.605 83.913 245.726 84.5812C246.106 84.6164 246.447 85.0174 246.455 85.3409C246.462 87.8169 243.835 89.5333 241.952 91.0245C238.763 93.5427 235.629 96.2016 232.67 98.9309C229.283 102.061 226.474 105.409 224.709 109.482C223.902 111.339 223.269 113.281 222.328 115.088C221.378 116.91 219.962 118.24 218.363 119.646C217.952 120.005 217.422 119.935 217.073 119.675C216.638 119.499 216.282 119.042 216.527 118.528ZM164.024 166.775C165.544 164.862 169.279 164.194 171.581 165.263C172.333 165.608 172.982 166.198 173.393 166.895C174.573 168.147 174.296 170.032 172.784 171.01C171.194 172.044 168.614 172.438 166.731 171.917C164.278 171.235 162.284 168.963 164.024 166.775ZM101.504 198.949C99.098 194.518 100.182 189.256 103.521 185.465C105.729 182.954 108.625 180.675 111.252 178.501C113.595 176.567 116.087 174.766 118.778 173.218C123.985 170.222 129.84 168.14 135.973 167.261C142.382 166.339 148.911 166.944 155.336 167.338C155.977 167.38 156.491 167.598 156.879 167.922C159.15 169.012 158.628 171.622 156.895 172.986C154.719 174.696 151.68 174.745 149.045 175.533C146.03 176.433 143.276 178.037 140.768 179.76C135.055 183.685 130.426 188.792 125.694 193.596C122.172 197.17 118.398 201.833 113.215 203.599C108.435 205.217 103.64 202.888 101.504 198.949ZM85.3056 221.452C81.4441 224.884 75.177 224.884 71.3154 221.452C67.4538 218.019 67.4538 212.448 71.3154 209.015C75.177 205.583 81.4441 205.583 85.3056 209.015C89.1672 212.448 89.1672 218.019 85.3056 221.452ZM186.577 140.376C178.078 147.931 164.301 147.931 155.803 140.376C147.304 132.821 147.304 120.575 155.803 113.02C164.301 105.466 178.078 105.466 186.577 113.02C195.075 120.575 195.075 132.821 186.577 140.376ZM204.207 106.802C201.113 109.552 196.104 109.552 193.018 106.802C189.924 104.052 189.924 99.5991 193.018 96.8558C196.112 94.1055 201.121 94.1055 204.207 96.8558C207.293 99.5991 207.293 104.059 204.207 106.802Z" fill="url(#paint1_linear_60_558)"/>
</svg>
