<svg width="24" height="24" viewBox="0 0 24 24" fill="none" xmlns="http://www.w3.org/2000/svg">
<g clip-path="url(#clip0_37_957)">
<path d="M23.714 12.2245C23.714 11.2413 23.6342 10.5238 23.4616 9.77966H12.2336V14.2176H18.8241C18.6913 15.3205 17.9738 16.9815 16.3793 18.0976L16.3569 18.2462L19.907 20.9964L20.1529 21.0209C22.4118 18.9347 23.714 15.8653 23.714 12.2245" fill="#4285F4"/>
<path d="M12.2336 23.9176C15.4624 23.9176 18.173 22.8545 20.153 21.0209L16.3793 18.0976C15.3694 18.8018 14.0141 19.2934 12.2336 19.2934C9.07118 19.2934 6.38712 17.2074 5.43032 14.324L5.29008 14.3359L1.59866 17.1927L1.55038 17.3269C3.51692 21.2334 7.55634 23.9176 12.2336 23.9176Z" fill="#34A853"/>
<path d="M5.43032 14.3239C5.17786 13.5798 5.03176 12.7825 5.03176 11.9587C5.03176 11.1349 5.17786 10.3376 5.41704 9.59354L5.41035 9.43507L1.67267 6.53235L1.55038 6.59052C0.73988 8.21162 0.274811 10.032 0.274811 11.9587C0.274811 13.8854 0.73988 15.7058 1.55038 17.3269L5.43032 14.3239" fill="#FBBC05"/>
<path d="M12.2336 4.62403C14.4791 4.62403 15.9939 5.59401 16.8576 6.40461L20.2326 3.10928C18.1599 1.1826 15.4624 0 12.2336 0C7.55634 0 3.51692 2.68406 1.55038 6.59056L5.41704 9.59359C6.38712 6.7102 9.07118 4.62403 12.2336 4.62403" fill="#EB4335"/>
</g>
<defs>
<clipPath id="clip0_37_957">
<rect width="23.4504" height="24" fill="white" transform="translate(0.274811)"/>
</clipPath>
</defs>
</svg>
