<svg width="24" height="24" viewBox="0 0 24 24" fill="none" xmlns="http://www.w3.org/2000/svg">
<path fill-rule="evenodd" clip-rule="evenodd" d="M4.79999 4.8C4.16347 4.8 3.55302 5.05286 3.10294 5.50295C2.65285 5.95303 2.39999 6.56348 2.39999 7.2V16.8C2.39999 17.4365 2.65285 18.047 3.10294 18.4971C3.55302 18.9471 4.16347 19.2 4.79999 19.2H19.2C19.8365 19.2 20.447 18.9471 20.8971 18.4971C21.3471 18.047 21.6 17.4365 21.6 16.8V9.6C21.6 8.96348 21.3471 8.35303 20.8971 7.90295C20.447 7.45286 19.8365 7.2 19.2 7.2H13.2L10.8 4.8H4.79999ZM13.2 10.8C13.2 10.4817 13.0736 10.1765 12.8485 9.95147C12.6235 9.72643 12.3183 9.6 12 9.6C11.6817 9.6 11.3765 9.72643 11.1515 9.95147C10.9264 10.1765 10.8 10.4817 10.8 10.8V12.7032L10.4484 12.3516C10.3377 12.237 10.2053 12.1456 10.0589 12.0827C9.91247 12.0198 9.75501 11.9867 9.59568 11.9853C9.43634 11.9839 9.27832 12.0143 9.13085 12.0746C8.98337 12.135 8.84939 12.2241 8.73672 12.3367C8.62405 12.4494 8.53494 12.5834 8.47461 12.7309C8.41427 12.8783 8.38391 13.0363 8.38529 13.1957C8.38668 13.355 8.41978 13.5125 8.48267 13.6589C8.54556 13.8053 8.63698 13.9377 8.75159 14.0484L11.1516 16.4484L11.154 16.4508C11.2651 16.5619 11.397 16.65 11.5421 16.7102C11.6873 16.7703 11.8429 16.8012 12 16.8012C12.1571 16.8012 12.3127 16.7703 12.4578 16.7102C12.603 16.65 12.7349 16.5619 12.846 16.4508L12.8484 16.4484L15.2484 14.0484C15.467 13.8221 15.5879 13.519 15.5852 13.2043C15.5825 12.8897 15.4563 12.5887 15.2338 12.3662C15.0113 12.1437 14.7103 12.0175 14.3957 12.0148C14.081 12.0121 13.7779 12.133 13.5516 12.3516L13.2 12.7032V10.8V10.8Z" fill="black"/>
</svg>
