<svg width="24" height="24" viewBox="0 0 24 24" fill="none" xmlns="http://www.w3.org/2000/svg">
<g clip-path="url(#clip0_37_1205)">
<path d="M12 0C14.1771 0 16.1849 0.536458 18.0234 1.60938C19.862 2.68229 21.3177 4.13802 22.3906 5.97656C23.4635 7.8151 24 9.82292 24 12C24 14.1771 23.4635 16.1849 22.3906 18.0234C21.3177 19.862 19.862 21.3177 18.0234 22.3906C16.1849 23.4635 14.1771 24 12 24C9.82292 24 7.8151 23.4635 5.97656 22.3906C4.13802 21.3177 2.68229 19.862 1.60938 18.0234C0.536458 16.1849 0 14.1771 0 12C0 9.82292 0.536458 7.8151 1.60938 5.97656C2.68229 4.13802 4.13802 2.68229 5.97656 1.60938C7.8151 0.536458 9.82292 0 12 0ZM18 12.8594C18.3333 12.6719 18.5 12.3854 18.5 12C18.5 11.6146 18.3333 11.3281 18 11.1406L9.5 6.14062C9.17708 5.94271 8.84375 5.9375 8.5 6.125C8.16667 6.32292 8 6.61458 8 7V17C8 17.3854 8.16667 17.6771 8.5 17.875C8.66667 17.9583 8.83333 18 9 18C9.17708 18 9.34375 17.9531 9.5 17.8594L18 12.8594Z" fill="black"/>
</g>
<defs>
<clipPath id="clip0_37_1205">
<rect width="24" height="24" fill="white"/>
</clipPath>
</defs>
</svg>
