<svg width="24" height="24" viewBox="0 0 24 24" fill="none" xmlns="http://www.w3.org/2000/svg">
<path fill-rule="evenodd" clip-rule="evenodd" d="M24 12C24 18.6274 18.6274 24 12 24C5.37258 24 0 18.6274 0 12C0 5.37258 5.37258 0 12 0C18.6274 0 24 5.37258 24 12ZM11.7802 9.21975C11.6388 9.08313 11.4493 9.00754 11.2527 9.00924C11.0561 9.01095 10.8679 9.08983 10.7289 9.22889C10.5898 9.36794 10.511 9.55605 10.5092 9.7527C10.5075 9.94935 10.5831 10.1388 10.7198 10.2802L12.9698 12.5302C13.1104 12.6709 13.3011 12.7498 13.5 12.7498C13.6989 12.7498 13.8896 12.6709 14.0302 12.5302L16.2803 10.2802C16.4169 10.1388 16.4925 9.94935 16.4908 9.7527C16.489 9.55605 16.4102 9.36794 16.2711 9.22889C16.1321 9.08983 15.9439 9.01095 15.7473 9.00924C15.5507 9.00754 15.3612 9.08313 15.2198 9.21975L14.25 10.1895V7.5H16.5C16.8978 7.5 17.2794 7.65804 17.5607 7.93934C17.842 8.22064 18 8.60218 18 9V12.75C18 13.1478 17.842 13.5294 17.5607 13.8107C17.2794 14.092 16.8978 14.25 16.5 14.25H10.5C10.1022 14.25 9.72064 14.092 9.43934 13.8107C9.15804 13.5294 9 13.1478 9 12.75V9C9 8.60218 9.15804 8.22064 9.43934 7.93934C9.72064 7.65804 10.1022 7.5 10.5 7.5H12.75V10.1895L11.7802 9.21975ZM12.75 7.5V6C12.75 5.80109 12.829 5.61032 12.9697 5.46967C13.1103 5.32902 13.3011 5.25 13.5 5.25C13.6989 5.25 13.8897 5.32902 14.0303 5.46967C14.171 5.61032 14.25 5.80109 14.25 6V7.5H12.75ZM6.43934 10.9393C6.72064 10.658 7.10218 10.5 7.5 10.5V15.75H15C15 16.1478 14.842 16.5294 14.5607 16.8107C14.2794 17.092 13.8978 17.25 13.5 17.25H7.5C7.10218 17.25 6.72064 17.092 6.43934 16.8107C6.15804 16.5294 6 16.1478 6 15.75V12C6 11.6022 6.15804 11.2206 6.43934 10.9393Z" fill="black"/>
</svg>
