<svg width="24" height="24" viewBox="0 0 24 24" fill="none" xmlns="http://www.w3.org/2000/svg">
<path fill-rule="evenodd" clip-rule="evenodd" d="M12 24C18.6274 24 24 18.6274 24 12C24 5.37258 18.6274 0 12 0C5.37258 0 0 5.37258 0 12C0 18.6274 5.37258 24 12 24ZM10.0368 11.3017C10.1283 11.341 10.2111 11.3981 10.2802 11.4698L11.25 12.4395V8.25H12.75V12.4395L13.7198 11.4698C13.8612 11.3331 14.0507 11.2575 14.2473 11.2592C14.4439 11.261 14.6321 11.3398 14.7711 11.4789C14.9102 11.6179 14.989 11.8061 14.9908 12.0027C14.9925 12.1993 14.9169 12.3888 14.7802 12.5302L12.5302 14.7802C12.3896 14.9209 12.1989 14.9998 12 14.9998C11.8011 14.9998 11.6104 14.9209 11.4698 14.7802L9.21975 12.5302C9.14812 12.4611 9.09098 12.3783 9.05167 12.2868C9.01237 12.1953 8.99168 12.0969 8.99081 11.9973C8.98995 11.8977 9.00892 11.799 9.04663 11.7068C9.08434 11.6146 9.14003 11.5309 9.21045 11.4605C9.28087 11.39 9.36461 11.3343 9.45678 11.2966C9.54896 11.2589 9.64772 11.2399 9.7473 11.2408C9.84689 11.2417 9.9453 11.2624 10.0368 11.3017ZM12.75 8.25V6.75C12.75 6.55109 12.671 6.36032 12.5303 6.21967C12.3897 6.07902 12.1989 6 12 6C11.8011 6 11.6103 6.07902 11.4697 6.21967C11.329 6.36032 11.25 6.55109 11.25 6.75V8.25H7.5C7.10218 8.25 6.72064 8.40804 6.43934 8.68934C6.15804 8.97064 6 9.35217 6 9.75V15C6 15.3978 6.15804 15.7794 6.43934 16.0607C6.72064 16.342 7.10218 16.5 7.5 16.5H16.5C16.8978 16.5 17.2794 16.342 17.5607 16.0607C17.842 15.7794 18 15.3978 18 15V9.75C18 9.35217 17.842 8.97064 17.5607 8.68934C17.2794 8.40804 16.8978 8.25 16.5 8.25H12.75Z" fill="black"/>
</svg>
