<svg width="24" height="24" viewBox="0 0 24 24" fill="none" xmlns="http://www.w3.org/2000/svg">
<path fill-rule="evenodd" clip-rule="evenodd" d="M11.2527 8.75924C11.4493 8.75754 11.6388 8.83313 11.7802 8.96975L12.75 9.9395V7.25H14.25V9.9395L15.2198 8.96975C15.3612 8.83313 15.5507 8.75754 15.7473 8.75924C15.9439 8.76095 16.1321 8.83983 16.2711 8.97889C16.4102 9.11794 16.489 9.30605 16.4908 9.5027C16.4925 9.69935 16.4169 9.8888 16.2803 10.0302L14.0302 12.2802C13.8896 12.4209 13.6989 12.4998 13.5 12.4998C13.3011 12.4998 13.1104 12.4209 12.9698 12.2802L10.7198 10.0302C10.5831 9.8888 10.5075 9.69935 10.5092 9.5027C10.511 9.30605 10.5898 9.11794 10.7289 8.97889C10.8679 8.83983 11.0561 8.76095 11.2527 8.75924ZM14.25 7.25V5.75C14.25 5.55109 14.171 5.36032 14.0303 5.21967C13.8897 5.07902 13.6989 5 13.5 5C13.3011 5 13.1103 5.07902 12.9697 5.21967C12.829 5.36032 12.75 5.55109 12.75 5.75V7.25H10.5C10.1022 7.25 9.72064 7.40804 9.43934 7.68934C9.15804 7.97064 9 8.35218 9 8.75V12.5C9 12.8978 9.15804 13.2794 9.43934 13.5607C9.72064 13.842 10.1022 14 10.5 14H16.5C16.8978 14 17.2794 13.842 17.5607 13.5607C17.842 13.2794 18 12.8978 18 12.5V8.75C18 8.35218 17.842 7.97064 17.5607 7.68934C17.2794 7.40804 16.8978 7.25 16.5 7.25H14.25ZM7.5 10.25C7.10218 10.25 6.72064 10.408 6.43934 10.6893C6.15804 10.9706 6 11.3522 6 11.75V15.5C6 15.8978 6.15804 16.2794 6.43934 16.5607C6.72064 16.842 7.10218 17 7.5 17H13.5C13.8978 17 14.2794 16.842 14.5607 16.5607C14.842 16.2794 15 15.8978 15 15.5H7.5V10.25Z" fill="black"/>
</svg>
